SplineFontDB: 3.2
FontName: Angelica
FullName: Angelica
FamilyName: Angelic
Weight: Regular
Copyright: 
Version: 1
ItalicAngle: 0
UnderlinePosition: -102.4
UnderlineWidth: 51.2
Ascent: 687
Descent: 337
InvalidEm: 0
sfntRevision: 0x00010000
LayerCount: 2
Layer: 0 1 "Back" 1
Layer: 1 1 "Fore" 0
HasVMetrics: 1
XUID: [1021 497 -1877248868 11783585]
StyleMap: 0x0040
FSType: 4
OS2Version: 3
OS2_WeightWidthSlopeOnly: 0
OS2_UseTypoMetrics: 0
CreationTime: 1500490800
ModificationTime: 1666633658
PfmFamily: 81
TTFWeight: 400
TTFWidth: 5
LineGap: 205
VLineGap: 0
Panose: 0 0 0 0 0 0 0 0 0 0
OS2TypoAscent: 687
OS2TypoAOffset: 0
OS2TypoDescent: -337
OS2TypoDOffset: 0
OS2TypoLinegap: 205
OS2WinAscent: 858
OS2WinAOffset: 0
OS2WinDescent: 371
OS2WinDOffset: 0
HheadAscent: 687
HheadAOffset: 0
HheadDescent: -337
HheadDOffset: 0
OS2SubXSize: 717
OS2SubYSize: 666
OS2SubXOff: 0
OS2SubYOff: 143
OS2SupXSize: 717
OS2SupYSize: 666
OS2SupXOff: 0
OS2SupYOff: 488
OS2StrikeYSize: 51
OS2StrikeYPos: 256
OS2CapHeight: 634
OS2XHeight: 683
OS2Vendor: 'PYRS'
OS2CodePages: 00000001.00000000
OS2UnicodeRanges: 00000001.00000000.00000000.00000000
Lookup: 258 0 0 "'kern' Horizontal Kerning in Latin lookup 0" { "'kern' Horizontal Kerning in Latin lookup 0 subtable" [150,15,3] } ['kern' ('DFLT' <'dflt' > 'latn' <'dflt' > ) ]
MarkAttachClasses: 1
DEI: 91125
TtTable: prep
PUSHW_1
 10
CALL
SVTCA[x-axis]
PUSHW_3
 2
 11
 12
CALL
SVTCA[x-axis]
PUSHW_8
 12
 110
 90
 70
 50
 30
 0
 18
CALL
SVTCA[y-axis]
PUSHW_8
 11
 110
 90
 70
 50
 30
 0
 18
CALL
SVTCA[y-axis]
PUSHW_3
 13
 3
 17
CALL
PUSHW_1
 10
DUP
RCVT
RDTG
ROUND[Black]
RTG
WCVTP
PUSHW_1
 0
CALL
SVTCA[x-axis]
PUSHW_3
 1
 1
 2
CALL
SVTCA[x-axis]
PUSHW_8
 1
 110
 90
 70
 50
 30
 0
 8
CALL
SVTCA[y-axis]
PUSHW_3
 2
 4
 7
CALL
PUSHW_1
 0
DUP
RCVT
RDTG
ROUND[Black]
RTG
WCVTP
EndTTInstrs
TtTable: fpgm
PUSHW_1
 0
FDEF
MPPEM
PUSHW_1
 9
LT
IF
PUSHB_2
 1
 1
INSTCTRL
EIF
PUSHW_1
 511
SCANCTRL
PUSHW_1
 68
SCVTCI
PUSHW_2
 9
 3
SDS
SDB
ENDF
PUSHW_1
 1
FDEF
DUP
DUP
RCVT

StartChar: .notdef
Encoding: 65536 -1 0
Width: 512
GlyphClass: 1
Flags: W
LayerCount: 2
Fore
SplineSet
65 0 m 1,0,-1
 65 687 l 1,1,-1
 449 687 l 1,2,-1
 449 0 l 1,3,-1
 65 0 l 1,4,-1
 65 0 l 1,0,-1
128 65 m 1,5,-1
 384 65 l 1,6,-1
 384 624 l 1,7,-1
 128 624 l 1,8,-1
 128 65 l 1,9,-1
 128 65 l 1,5,-1
EndSplineSet
EndChar

StartChar: D
Encoding: 68 68 4
Width: 699
GlyphClass: 1
Flags: W
LayerCount: 2
Fore
SplineSet
657 381 m 2,0,-1
 276 381 l 1,1,-1
 276 40 l 1,2,-1
 655 -132 l 2,3,4
 669 -138 669 -138 670 -155 c 0,5,6
 670 -166 670 -166 662.5 -173 c 128,-1,7
 655 -180 655 -180 645 -180 c 0,8,9
 643 -180 643 -180 635 -178 c 2,10,-1
 -154 180 l 2,11,12
 -168 186 -168 186 -168 204 c 0,13,14
 -168 214 -168 214 -161 221 c 128,-1,15
 -154 228 -154 228 -142 228 c 0,16,17
 -136 228 -136 228 -132 226 c 2,18,-1
 226 63 l 1,19,-1
 226 406 l 2,20,21
 226 432 226 432 252 431 c 2,22,-1
 657 431 l 2,23,24
 667 431 667 431 674.5 424 c 128,-1,25
 682 417 682 417 682 406 c 0,26,27
 682 396 682 396 674.5 388.5 c 128,-1,28
 667 381 667 381 657 381 c 2,0,-1
EndSplineSet
EndChar

StartChar: E
Encoding: 69 69 5
Width: 922
GlyphClass: 1
Flags: W
LayerCount: 2
Fore
SplineSet
1260 411 m 256,0,1
 1260 385 1260 385 1234 385 c 2,2,-1
 823 385 l 1,3,-1
 823 26 l 2,4,5
 823 0 823 0 798 0 c 0,6,7
 788 0 788 0 780 7 c 128,-1,8
 772 14 772 14 772 26 c 2,9,-1
 772 411 l 2,10,11
 772 486 772 486 743.5 551 c 128,-1,12
 715 616 715 616 666 665 c 128,-1,13
 617 714 617 714 551.5 742 c 128,-1,14
 486 770 486 770 413 770 c 0,15,16
 341 770 341 770 276 742 c 128,-1,17
 211 714 211 714 161.5 665 c 128,-1,18
 112 616 112 616 82.5 550.5 c 128,-1,19
 53 485 53 485 53 411 c 0,20,21
 53 385 53 385 28 385 c 256,22,23
 2 385 2 385 2 411 c 0,24,25
 2 496 2 496 34.5 570.5 c 128,-1,26
 67 645 67 645 123 701 c 128,-1,27
 179 757 179 757 253.5 789 c 128,-1,28
 328 821 328 821 413 821 c 0,29,30
 495 821 495 821 567.5 791.5 c 128,-1,31
 640 762 640 762 695.5 709.5 c 128,-1,32
 751 657 751 657 784.5 587 c 128,-1,33
 818 517 818 517 823 436 c 1,34,-1
 1234 436 l 2,35,36
 1260 437 1260 437 1260 411 c 256,0,1
EndSplineSet
EndChar

StartChar: F
Encoding: 70 70 6
Width: 522
GlyphClass: 1
Flags: W
LayerCount: 2
Fore
SplineSet
446 40 m 1,0,-1
 825 -132 l 2,1,2
 839 -138 839 -138 840 -155 c 0,3,4
 840 -166 840 -166 832.5 -173 c 128,-1,5
 825 -180 825 -180 815 -180 c 0,6,7
 813 -180 813 -180 805 -178 c 2,8,-1
 16 180 l 2,9,10
 2 186 2 186 2 203 c 0,11,12
 2 229 2 229 28 228 c 0,13,14
 30 228 30 228 38 226 c 2,15,-1
 396 63 l 1,16,-1
 396 583 l 1,17,-1
 -390 583 l 2,18,19
 -400 583 -400 583 -407.5 590 c 128,-1,20
 -415 597 -415 597 -415 608 c 256,21,22
 -415 619 -415 619 -407.5 626.5 c 128,-1,23
 -400 634 -400 634 -390 634 c 2,24,-1
 421 634 l 1,25,-1
 422 634 l 2,26,27
 432 634 432 634 439 627 c 128,-1,28
 446 620 446 620 446 608 c 2,29,-1
 446 40 l 1,0,-1
EndSplineSet
EndChar

StartChar: G
Encoding: 71 71 7
Width: 644
GlyphClass: 1
Flags: W
LayerCount: 2
Fore
SplineSet
199 -101 m 256,0,1
 219 -101 219 -101 234.5 -116 c 128,-1,2
 250 -131 250 -131 250 -153 c 0,3,4
 250 -173 250 -173 234.5 -188 c 128,-1,5
 219 -203 219 -203 199 -203 c 256,6,7
 179 -203 179 -203 163 -188 c 128,-1,8
 147 -173 147 -173 147 -153 c 0,9,10
 147 -131 147 -131 163 -116 c 128,-1,11
 179 -101 179 -101 199 -101 c 256,0,1
605 605 m 1,12,-1
 605 404 l 2,13,14
 605 321 605 321 573.5 247.5 c 128,-1,15
 542 174 542 174 486.5 118.5 c 128,-1,16
 431 63 431 63 357 31.5 c 128,-1,17
 283 0 283 0 199 0 c 0,18,19
 114 0 114 0 40 31.5 c 128,-1,20
 -34 63 -34 63 -89 118 c 128,-1,21
 -144 173 -144 173 -176 247 c 128,-1,22
 -208 321 -208 321 -208 404 c 0,23,24
 -208 430 -208 430 -182 430 c 0,25,26
 -172 430 -172 430 -165 423 c 128,-1,27
 -158 416 -158 416 -158 404 c 0,28,29
 -158 330 -158 330 -129.5 266 c 128,-1,30
 -101 202 -101 202 -53 153.5 c 128,-1,31
 -5 105 -5 105 60 77.5 c 128,-1,32
 125 50 125 50 199 50 c 256,33,34
 273 50 273 50 337 77.5 c 128,-1,35
 401 105 401 105 449.5 153.5 c 128,-1,36
 498 202 498 202 526 266.5 c 128,-1,37
 554 331 554 331 554 404 c 2,38,-1
 554 582 l 1,39,-1
 199 582 l 2,40,41
 188 582 188 582 180.5 589 c 128,-1,42
 173 596 173 596 173 606 c 0,43,44
 173 632 173 632 199 632 c 2,45,-1
 580 632 l 1,46,-1
 581 632 l 1,47,-1
 582 632 l 1,48,-1
 583 632 l 1,49,-1
 584 632 l 1,50,-1
 585 632 l 2,51,52
 586 631 586 631 587 631 c 2,53,-1
 588 631 l 1,54,-1
 589 630 l 1,55,-1
 590 630 l 2,56,57
 591 630 591 630 592 629 c 0,58,59
 600 624 600 624 603 615 c 0,60,61
 605 607 605 607 605 606 c 2,62,-1
 605 605 l 1,12,-1
EndSplineSet
EndChar

StartChar: H
Encoding: 72 72 8
Width: 852
GlyphClass: 1
Flags: W
LayerCount: 2
Fore
SplineSet
406 457 m 256,0,1
 426 457 426 457 441 441.5 c 128,-1,2
 456 426 456 426 456 406 c 256,3,4
 456 386 456 386 441 370.5 c 128,-1,5
 426 355 426 355 406 355 c 256,6,7
 386 355 386 355 370.5 370 c 128,-1,8
 355 385 355 385 355 406 c 256,9,10
 355 426 355 426 370.5 441.5 c 128,-1,11
 386 457 386 457 406 457 c 256,0,1
811 407 m 2,12,-1
 811 26 l 2,13,14
 811 0 811 0 785 0 c 0,15,16
 775 0 775 0 768 7 c 128,-1,17
 761 14 761 14 761 26 c 1,18,-1
 760 26 l 1,19,-1
 760 406 l 2,20,21
 760 480 760 480 731.5 544.5 c 128,-1,22
 703 609 703 609 655 657.5 c 128,-1,23
 607 706 607 706 542.5 733.5 c 128,-1,24
 478 761 478 761 406 761 c 0,25,26
 335 761 335 761 270.5 733.5 c 128,-1,27
 206 706 206 706 157.5 657 c 128,-1,28
 109 608 109 608 80 543.5 c 128,-1,29
 51 479 51 479 51 406 c 1,30,-1
 50 406 l 1,31,32
 50 395 50 395 43 387.5 c 128,-1,33
 36 380 36 380 26 380 c 0,34,35
 0 380 0 380 0 406 c 0,36,37
 0 490 0 490 31.5 563.5 c 128,-1,38
 63 637 63 637 118.5 692.5 c 128,-1,39
 174 748 174 748 248 779.5 c 128,-1,40
 322 811 322 811 406 811 c 256,41,42
 490 811 490 811 563.5 779.5 c 128,-1,43
 637 748 637 748 692.5 693 c 128,-1,44
 748 638 748 638 779.5 564.5 c 128,-1,45
 811 491 811 491 811 407 c 2,12,-1
EndSplineSet
EndChar

StartChar: J
Encoding: 74 74 9
Width: 699
GlyphClass: 1
Flags: W
LayerCount: 2
Fore
SplineSet
276 41 m 5,0,-1
 655 -132 l 6,1,2
 670 -140 670 -140 671 -155 c 4,3,4
 671 -181 671 -181 645 -180 c 4,5,6
 643 -180 643 -180 635 -178 c 6,7,-1
 -154 180 l 5,8,-1
 -153 180 l 5,9,10
 -168 187 -168 187 -168 204 c 4,11,12
 -168 214 -168 214 -161 221 c 132,-1,13
 -154 228 -154 228 -142 228 c 4,14,15
 -136 228 -136 228 -132 226 c 6,16,-1
 226 63 l 5,17,-1
 226 406 l 6,18,19
 226 490 226 490 258 563.5 c 128,-1,20
 290 637 290 637 344.5 692.5 c 128,-1,21
 399 748 399 748 473 779.5 c 128,-1,22
 547 811 547 811 632 811 c 0,23,24
 642 811 642 811 649 804 c 128,-1,25
 656 797 656 797 656 785 c 0,26,27
 656 775 656 775 649 768 c 128,-1,28
 642 761 642 761 632 761 c 1,29,-1
 632 760 l 1,30,31
 559 760 559 760 494.5 732.5 c 128,-1,32
 430 705 430 705 381.5 657 c 128,-1,33
 333 609 333 609 304.5 544 c 128,-1,34
 276 479 276 479 276 406 c 6,35,-1
 276 41 l 5,0,-1
479 407 m 0,36,37
 479 427 479 427 494 442 c 128,-1,38
 509 457 509 457 530 457 c 0,39,40
 550 457 550 457 565.5 442 c 128,-1,41
 581 427 581 427 581 407 c 0,42,43
 581 385 581 385 566 370 c 128,-1,44
 551 355 551 355 530 355 c 0,45,46
 508 355 508 355 493.5 370 c 128,-1,47
 479 385 479 385 479 407 c 0,36,37
EndSplineSet
EndChar

StartChar: K
Encoding: 75 75 10
Width: 647
GlyphClass: 1
Flags: W
LayerCount: 2
Fore
SplineSet
580 431 m 0,0,1
 606 431 606 431 605 406 c 0,2,3
 605 322 605 322 573.5 248 c 128,-1,4
 542 174 542 174 486.5 118.5 c 128,-1,5
 431 63 431 63 357.5 31.5 c 128,-1,6
 284 0 284 0 200 0 c 256,7,8
 116 0 116 0 42 31.5 c 128,-1,9
 -32 63 -32 63 -87 118.5 c 128,-1,10
 -142 174 -142 174 -174 248 c 128,-1,11
 -206 322 -206 322 -206 406 c 0,12,13
 -206 432 -206 432 -180 431 c 0,14,15
 -170 431 -170 431 -163 424 c 128,-1,16
 -156 417 -156 417 -156 406 c 1,17,-1
 -155 406 l 1,18,19
 -155 332 -155 332 -126.5 267 c 128,-1,20
 -98 202 -98 202 -50 154 c 128,-1,21
 -2 106 -2 106 62.5 78.5 c 128,-1,22
 127 51 127 51 200 51 c 0,23,24
 271 51 271 51 335 78.5 c 128,-1,25
 399 106 399 106 448 154.5 c 128,-1,26
 497 203 497 203 525.5 267.5 c 128,-1,27
 554 332 554 332 554 406 c 1,28,-1
 555 406 l 1,29,30
 555 417 555 417 562.5 424 c 128,-1,31
 570 431 570 431 580 431 c 0,0,1
EndSplineSet
EndChar

StartChar: L
Encoding: 76 76 11
Width: 852
GlyphClass: 1
Flags: W
LayerCount: 2
Fore
SplineSet
785 431 m 0,0,1
 811 431 811 431 811 406 c 2,2,-1
 811 404 l 2,3,4
 811 320 811 320 779.5 246.5 c 128,-1,5
 748 173 748 173 692.5 118 c 128,-1,6
 637 63 637 63 563 31.5 c 128,-1,7
 489 0 489 0 406 0 c 256,8,9
 322 0 322 0 248 31.5 c 128,-1,10
 174 63 174 63 118.5 118.5 c 128,-1,11
 63 174 63 174 31.5 248 c 128,-1,12
 0 322 0 322 0 406 c 2,13,-1
 0 607 l 1,14,-1
 0 608 l 1,15,16
 0 608 0 608 2 616 c 0,17,18
 5 626 5 626 15 630.5 c 128,-1,19
 25 635 25 635 34 632 c 2,20,-1
 415 488 l 2,21,22
 425 484 425 484 429 475 c 128,-1,23
 433 466 433 466 429 457 c 0,24,25
 425 447 425 447 416 442 c 128,-1,26
 407 437 407 437 396 441 c 2,27,-1
 51 571 l 1,28,-1
 51 406 l 2,29,30
 51 332 51 332 78.5 267.5 c 128,-1,31
 106 203 106 203 154.5 154.5 c 128,-1,32
 203 106 203 106 267.5 78 c 128,-1,33
 332 50 332 50 406 50 c 256,34,35
 480 50 480 50 544 77.5 c 128,-1,36
 608 105 608 105 656.5 153.5 c 128,-1,37
 705 202 705 202 733 267 c 128,-1,38
 761 332 761 332 761 406 c 0,39,40
 761 417 761 417 768 424 c 128,-1,41
 775 431 775 431 785 431 c 0,0,1
EndSplineSet
EndChar

StartChar: M
Encoding: 77 77 12
Width: 852
GlyphClass: 1
Flags: W
LayerCount: 2
Fore
SplineSet
811 786 m 2,0,-1
 811 406 l 2,1,2
 811 322 811 322 779.5 248 c 128,-1,3
 748 174 748 174 692.5 118.5 c 128,-1,4
 637 63 637 63 563 31.5 c 128,-1,5
 489 0 489 0 406 0 c 256,6,7
 322 0 322 0 248 31.5 c 128,-1,8
 174 63 174 63 118.5 118.5 c 128,-1,9
 63 174 63 174 31.5 248 c 128,-1,10
 0 322 0 322 0 406 c 0,11,12
 0 432 0 432 26 431 c 0,13,14
 36 431 36 431 43 424 c 128,-1,15
 50 417 50 417 50 406 c 1,16,-1
 51 406 l 1,17,18
 51 332 51 332 79.5 267 c 128,-1,19
 108 202 108 202 156 154 c 128,-1,20
 204 106 204 106 268.5 78.5 c 128,-1,21
 333 51 333 51 406 51 c 0,22,23
 477 51 477 51 541 78.5 c 128,-1,24
 605 106 605 106 653.5 154.5 c 128,-1,25
 702 203 702 203 731 267.5 c 128,-1,26
 760 332 760 332 760 406 c 1,27,-1
 767 406 l 1,28,-1
 760 406 l 1,29,-1
 760 761 l 1,30,-1
 26 761 l 2,31,32
 0 761 0 761 0 786 c 0,33,34
 0 796 0 796 7 803.5 c 128,-1,35
 14 811 14 811 26 811 c 2,36,-1
 785 811 l 2,37,38
 796 811 796 811 803.5 803.5 c 128,-1,39
 811 796 811 796 811 786 c 2,0,-1
EndSplineSet
EndChar

StartChar: N
Encoding: 78 78 13
Width: 751
GlyphClass: 1
Flags: W
LayerCount: 2
Fore
SplineSet
710 26 m 0,0,1
 710 0 710 0 684 0 c 0,2,3
 674 0 674 0 666.5 7 c 128,-1,4
 659 14 659 14 659 26 c 1,5,-1
 658 26 l 1,6,7
 658 97 658 97 632.5 159 c 128,-1,8
 607 221 607 221 562.5 268.5 c 128,-1,9
 518 316 518 316 458 345.5 c 128,-1,10
 398 375 398 375 330 380 c 1,11,-1
 330 26 l 2,12,13
 330 0 330 0 304 0 c 256,14,15
 278 0 278 0 279 26 c 2,16,-1
 279 380 l 1,17,18
 212 375 212 375 152 345.5 c 128,-1,19
 92 316 92 316 47 268.5 c 128,-1,20
 2 221 2 221 -24 158.5 c 128,-1,21
 -50 96 -50 96 -50 26 c 1,22,-1
 -51 26 l 1,23,24
 -51 15 -51 15 -58.5 7.5 c 128,-1,25
 -66 0 -66 0 -76 0 c 0,26,27
 -102 0 -102 0 -101 26 c 0,28,29
 -101 107 -101 107 -71.5 178.5 c 128,-1,30
 -42 250 -42 250 9 304 c 128,-1,31
 60 358 60 358 130 391.5 c 128,-1,32
 200 425 200 425 279 430 c 1,33,-1
 279 608 l 2,34,35
 279 634 279 634 304 634 c 256,36,37
 330 634 330 634 330 608 c 2,38,-1
 330 430 l 1,39,40
 410 425 410 425 479 391.5 c 128,-1,41
 548 358 548 358 599.5 303.5 c 128,-1,42
 651 249 651 249 680.5 178 c 128,-1,43
 710 107 710 107 710 26 c 0,0,1
EndSplineSet
EndChar

StartChar: P
Encoding: 80 80 14
Width: 545
GlyphClass: 1
Flags: W
LayerCount: 2
Fore
SplineSet
124 253 m 4,0,1
 144 253 144 253 159 238 c 132,-1,2
 174 223 174 223 174 203 c 4,3,4
 174 181 174 181 159 166.5 c 132,-1,5
 144 152 144 152 124 152 c 4,6,7
 102 152 102 152 87.5 166.5 c 132,-1,8
 73 181 73 181 73 203 c 4,9,10
 73 223 73 223 87.5 238 c 132,-1,11
 102 253 102 253 124 253 c 4,0,1
529 406 m 2,12,-1
 529 26 l 2,13,14
 529 0 529 0 504 0 c 256,15,16
 478 0 478 0 478 26 c 2,17,-1
 478 380 l 1,18,-1
 -282 380 l 2,19,20
 -308 380 -308 380 -307 406 c 256,21,22
 -307 432 -307 432 -282 431 c 2,23,-1
 504 431 l 2,24,25
 514 431 514 431 521.5 424 c 128,-1,26
 529 417 529 417 529 406 c 2,12,-1
EndSplineSet
EndChar

StartChar: Q
Encoding: 81 81 15
Width: 650
GlyphClass: 1
Flags: W
LayerCount: 2
Fore
SplineSet
607 406 m 0,0,1
 607 325 607 325 577.5 253 c 128,-1,2
 548 181 548 181 496 127 c 128,-1,3
 444 73 444 73 375 39 c 128,-1,4
 306 5 306 5 227 1 c 1,5,-1
 227 -76 l 1,6,-1
 404 -76 l 2,7,8
 430 -76 430 -76 430 -101 c 0,9,10
 430 -111 430 -111 423 -118.5 c 128,-1,11
 416 -126 416 -126 404 -126 c 2,12,-1
 -1 -126 l 2,13,14
 -12 -126 -12 -126 -19.5 -119 c 128,-1,15
 -27 -112 -27 -112 -27 -101 c 0,16,17
 -27 -75 -27 -75 -1 -76 c 2,18,-1
 176 -76 l 1,19,-1
 176 1 l 1,20,21
 96 5 96 5 27 39 c 128,-1,22
 -42 73 -42 73 -93.5 127 c 128,-1,23
 -145 181 -145 181 -174.5 253 c 128,-1,24
 -204 325 -204 325 -204 406 c 0,25,26
 -204 432 -204 432 -178 431 c 0,27,28
 -168 431 -168 431 -161 424 c 128,-1,29
 -154 417 -154 417 -154 406 c 1,30,-1
 -153 406 l 1,31,32
 -153 335 -153 335 -127 272.5 c 128,-1,33
 -101 210 -101 210 -56.5 162.5 c 128,-1,34
 -12 115 -12 115 48 85.5 c 128,-1,35
 108 56 108 56 176 51 c 1,36,-1
 176 406 l 2,37,38
 176 432 176 432 202 431 c 256,39,40
 228 431 228 431 227 406 c 2,41,-1
 227 51 l 1,42,43
 294 56 294 56 354 85.5 c 128,-1,44
 414 115 414 115 459 162.5 c 128,-1,45
 504 210 504 210 530 272.5 c 128,-1,46
 556 335 556 335 556 406 c 1,47,-1
 557 406 l 1,48,49
 557 417 557 417 564 424 c 128,-1,50
 571 431 571 431 582 431 c 0,51,52
 607 432 607 432 607 406 c 0,0,1
EndSplineSet
EndChar

StartChar: R
Encoding: 82 82 16
Width: 629
GlyphClass: 1
Flags: W
LayerCount: 2
Fore
SplineSet
443 40 m 1,0,-1
 822 -132 l 2,1,2
 836 -138 836 -138 837 -155 c 0,3,4
 837 -166 837 -166 829.5 -173 c 128,-1,5
 822 -180 822 -180 812 -180 c 0,6,7
 810 -180 810 -180 802 -178 c 2,8,-1
 13 180 l 2,9,10
 -1 186 -1 186 -1 204 c 0,11,12
 -1 214 -1 214 6 221 c 128,-1,13
 13 228 13 228 25 228 c 0,14,15
 31 228 31 228 35 226 c 2,16,-1
 393 63 l 1,17,-1
 393 389 l 1,18,-1
 13 562 l 2,19,20
 -1 568 -1 568 -1 586 c 0,21,22
 -1 596 -1 596 6 603 c 128,-1,23
 13 610 13 610 25 610 c 0,24,25
 31 610 31 610 35 608 c 2,26,-1
 393 445 l 1,27,-1
 393 608 l 2,28,29
 393 634 393 634 419 634 c 0,30,31
 429 634 429 634 436 627 c 128,-1,32
 443 620 443 620 443 608 c 2,33,-1
 443 40 l 1,0,-1
EndSplineSet
EndChar

StartChar: S
Encoding: 83 83 17
Width: 647
GlyphClass: 1
Flags: W
LayerCount: 2
Fore
SplineSet
200 558 m 256,0,1
 180 558 180 558 165 573 c 128,-1,2
 150 588 150 588 150 608 c 0,3,4
 150 630 150 630 164.5 644.5 c 128,-1,5
 179 659 179 659 200 659 c 256,6,7
 220 659 220 659 235 644.5 c 128,-1,8
 250 630 250 630 250 608 c 0,9,10
 250 588 250 588 235 573 c 128,-1,11
 220 558 220 558 200 558 c 256,0,1
200 355 m 256,12,13
 180 355 180 355 165 370 c 128,-1,14
 150 385 150 385 150 406 c 0,15,16
 150 428 150 428 164.5 442.5 c 128,-1,17
 179 457 179 457 200 457 c 256,18,19
 220 457 220 457 235 442 c 128,-1,20
 250 427 250 427 250 406 c 0,21,22
 250 386 250 386 235 370.5 c 128,-1,23
 220 355 220 355 200 355 c 256,12,13
580 431 m 0,24,25
 606 431 606 431 605 406 c 0,26,27
 605 322 605 322 573.5 248 c 128,-1,28
 542 174 542 174 486.5 118.5 c 128,-1,29
 431 63 431 63 357.5 31.5 c 128,-1,30
 284 0 284 0 200 0 c 256,31,32
 116 0 116 0 42 31.5 c 128,-1,33
 -32 63 -32 63 -87 118.5 c 128,-1,34
 -142 174 -142 174 -174 248 c 128,-1,35
 -206 322 -206 322 -206 406 c 0,36,37
 -206 432 -206 432 -180 431 c 0,38,39
 -170 431 -170 431 -163 424 c 128,-1,40
 -156 417 -156 417 -156 406 c 1,41,-1
 -155 406 l 1,42,43
 -155 332 -155 332 -126.5 267 c 128,-1,44
 -98 202 -98 202 -50 154 c 128,-1,45
 -2 106 -2 106 62.5 78.5 c 128,-1,46
 127 51 127 51 200 51 c 0,47,48
 271 51 271 51 335 78.5 c 128,-1,49
 399 106 399 106 448 154.5 c 128,-1,50
 497 203 497 203 525.5 267.5 c 128,-1,51
 554 332 554 332 554 406 c 1,52,-1
 555 406 l 1,53,54
 555 417 555 417 562.5 424 c 128,-1,55
 570 431 570 431 580 431 c 0,24,25
EndSplineSet
EndChar

StartChar: T
Encoding: 84 84 18
Width: 394
GlyphClass: 1
Flags: W
LayerCount: 2
Fore
SplineSet
332 608 m 2,0,-1
 332 26 l 2,1,2
 332 15 332 15 324.5 7.5 c 128,-1,3
 317 0 317 0 307 0 c 0,4,5
 281 0 281 0 282 26 c 2,6,-1
 282 390 l 1,7,-1
 -98 562 l 2,8,9
 -112 568 -112 568 -113 586 c 0,10,11
 -113 596 -113 596 -105.5 603 c 128,-1,12
 -98 610 -98 610 -87 610 c 0,13,14
 -81 610 -81 610 -77 608 c 2,15,-1
 282 445 l 1,16,-1
 282 608 l 2,17,18
 282 634 282 634 307 634 c 0,19,20
 317 634 317 634 324.5 626.5 c 128,-1,21
 332 619 332 619 332 608 c 2,0,-1
EndSplineSet
EndChar

StartChar: U
Encoding: 85 85 19
Width: 850
GlyphClass: 1
Flags: W
LayerCount: 2
Fore
SplineSet
835 406 m 2,0,-1
 835 26 l 2,1,2
 835 0 835 0 809 0 c 256,3,4
 783 0 783 0 783 26 c 2,5,-1
 783 177 l 1,6,-1
 429 177 l 2,7,8
 403 177 403 177 403 203 c 256,9,10
 403 229 403 229 429 228 c 2,11,-1
 783 228 l 1,12,-1
 783 380 l 1,13,-1
 24 380 l 2,14,15
 -2 380 -2 380 -2 406 c 256,16,17
 -2 432 -2 432 24 431 c 2,18,-1
 809 431 l 2,19,20
 819 431 819 431 827 424 c 128,-1,21
 835 417 835 417 835 406 c 2,0,-1
EndSplineSet
EndChar

StartChar: W
Encoding: 87 87 20
Width: 609
GlyphClass: 1
Flags: W
LayerCount: 2
Fore
SplineSet
200 51 m 0,0,1
 268 51 268 51 329.5 76.5 c 128,-1,2
 391 102 391 102 439 146.5 c 128,-1,3
 487 191 487 191 518 251 c 128,-1,4
 549 311 549 311 554 381 c 1,5,-1
 -154 381 l 1,6,7
 -150 311 -150 311 -120 250.5 c 128,-1,8
 -90 190 -90 190 -42 145.5 c 128,-1,9
 6 101 6 101 68 76 c 128,-1,10
 130 51 130 51 200 51 c 0,0,1
-180 431 m 2,11,-1
 1011 431 l 2,12,13
 1037 431 1037 431 1036 406 c 0,14,15
 1036 396 1036 396 1029 388.5 c 128,-1,16
 1022 381 1022 381 1011 381 c 2,17,-1
 604 381 l 1,18,19
 599 301 599 301 565 232 c 128,-1,20
 531 163 531 163 477 111 c 128,-1,21
 423 59 423 59 351.5 29.5 c 128,-1,22
 280 0 280 0 200 0 c 0,23,24
 116 0 116 0 42 31.5 c 128,-1,25
 -32 63 -32 63 -87 118.5 c 128,-1,26
 -142 174 -142 174 -174 248 c 128,-1,27
 -206 322 -206 322 -206 406 c 0,28,29
 -206 431 -206 431 -180 431 c 2,11,-1
EndSplineSet
EndChar

StartChar: X
Encoding: 88 88 21
Width: 852
GlyphClass: 1
Flags: W
LayerCount: 2
Fore
SplineSet
402 583 m 2,0,-1
 51 583 l 1,1,-1
 51 228 l 1,2,-1
 761 228 l 1,3,4
 761 302 761 302 732 367 c 128,-1,5
 703 432 703 432 654 479.5 c 128,-1,6
 605 527 605 527 540 555 c 128,-1,7
 475 583 475 583 402 583 c 2,0,-1
811 236 m 2,8,-1
 811 26 l 2,9,10
 811 0 811 0 785 0 c 0,11,12
 775 0 775 0 768 7 c 128,-1,13
 761 14 761 14 761 26 c 2,14,-1
 761 177 l 1,15,-1
 26 177 l 2,16,17
 0 177 0 177 0 203 c 2,18,-1
 0 583 l 1,19,-1
 0 634 l 1,20,-1
 0 785 l 2,21,22
 0 811 0 811 26 811 c 0,23,24
 36 811 36 811 43.5 804 c 128,-1,25
 51 797 51 797 51 785 c 2,26,-1
 51 634 l 1,27,-1
 406 634 l 2,28,29
 489 634 489 634 562.5 602.5 c 128,-1,30
 636 571 636 571 691 517 c 128,-1,31
 746 463 746 463 778.5 390.5 c 128,-1,32
 811 318 811 318 811 236 c 2,8,-1
EndSplineSet
EndChar

StartChar: Y
Encoding: 89 89 22
Width: 186
GlyphClass: 1
Flags: W
LayerCount: 2
Fore
SplineSet
289 407 m 2,0,-1
 289 4 l 2,1,2
 289 -3 289 -3 286 -7 c 0,3,4
 247 -96 247 -96 185.5 -169 c 128,-1,5
 124 -242 124 -242 45.5 -293.5 c 128,-1,6
 -33 -345 -33 -345 -125 -373.5 c 128,-1,7
 -217 -402 -217 -402 -316 -402 c 0,8,9
 -414 -402 -414 -402 -507 -373.5 c 128,-1,10
 -600 -345 -600 -345 -679 -293 c 128,-1,11
 -758 -241 -758 -241 -820 -168 c 128,-1,12
 -882 -95 -882 -95 -920 -6 c 0,13,14
 -922 2 -922 2 -922 4 c 0,15,16
 -922 30 -922 30 -896 30 c 0,17,18
 -880 30 -880 30 -872 13 c 0,19,20
 -836 -70 -836 -70 -779 -137.5 c 128,-1,21
 -722 -205 -722 -205 -649.5 -252.5 c 128,-1,22
 -577 -300 -577 -300 -492.5 -325.5 c 128,-1,23
 -408 -351 -408 -351 -316 -351 c 0,24,25
 -226 -351 -226 -351 -142 -325.5 c 128,-1,26
 -58 -300 -58 -300 14 -253 c 128,-1,27
 86 -206 86 -206 144 -139.5 c 128,-1,28
 202 -73 202 -73 239 9 c 1,29,-1
 239 407 l 2,30,31
 239 417 239 417 246 424 c 128,-1,32
 253 431 253 431 263 431 c 0,33,34
 274 431 274 431 281.5 424 c 128,-1,35
 289 417 289 417 289 407 c 2,0,-1
EndSplineSet
EndChar

StartChar: Z
Encoding: 90 90 23
Width: 856
GlyphClass: 1
Flags: W
LayerCount: 2
Fore
SplineSet
814 403 m 1,0,-1
 814 402 l 2,1,2
 814 319 814 319 782.5 246 c 128,-1,3
 751 173 751 173 695.5 118 c 128,-1,4
 640 63 640 63 566.5 31.5 c 128,-1,5
 493 0 493 0 409 0 c 256,6,7
 325 0 325 0 251 31.5 c 128,-1,8
 177 63 177 63 122 118 c 128,-1,9
 67 173 67 173 35 247 c 128,-1,10
 3 321 3 321 3 404 c 2,11,-1
 3 406 l 2,12,13
 3 432 3 432 29 431 c 0,14,15
 39 431 39 431 46 424 c 128,-1,16
 53 417 53 417 53 406 c 0,17,18
 53 332 53 332 81.5 267 c 128,-1,19
 110 202 110 202 158 153.5 c 128,-1,20
 206 105 206 105 270.5 77.5 c 128,-1,21
 335 50 335 50 409 50 c 0,22,23
 482 50 482 50 546 77.5 c 128,-1,24
 610 105 610 105 658.5 153.5 c 128,-1,25
 707 202 707 202 735 266 c 128,-1,26
 763 330 763 330 763 402 c 2,27,-1
 763 571 l 1,28,-1
 418 441 l 2,29,30
 408 437 408 437 398.5 441.5 c 128,-1,31
 389 446 389 446 385 457 c 0,32,33
 381 466 381 466 385.5 475.5 c 128,-1,34
 390 485 390 485 399 488 c 2,35,-1
 780 632 l 2,36,37
 789 635 789 635 799 631 c 128,-1,38
 809 627 809 627 812 616 c 0,39,40
 814 608 814 608 814 608 c 1,41,-1
 814 607 l 1,42,-1
 814 406 l 1,43,-1
 814 403 l 1,0,-1
EndSplineSet
EndChar

StartChar: a
Encoding: 97 97 24
Width: 897
GlyphClass: 1
Flags: W
LayerCount: 2
Fore
SplineSet
825 406 m 0,0,1
 825 322 825 322 793.5 248 c 128,-1,2
 762 174 762 174 706.5 118.5 c 128,-1,3
 651 63 651 63 577.5 31.5 c 128,-1,4
 504 0 504 0 420 0 c 0,5,6
 410 0 410 0 402.5 7.5 c 128,-1,7
 395 15 395 15 395 26 c 2,8,-1
 395 389 l 1,9,-1
 16 562 l 2,10,11
 1 569 1 569 1 585 c 0,12,13
 1 611 1 611 27 610 c 0,14,15
 29 610 29 610 37 608 c 2,16,-1
 395 445 l 1,17,-1
 395 608 l 2,18,19
 395 619 395 619 402.5 626.5 c 128,-1,20
 410 634 410 634 420 634 c 0,21,22
 446 634 446 634 445 608 c 2,23,-1
 445 52 l 1,24,25
 511 57 511 57 571 86.5 c 128,-1,26
 631 116 631 116 676 163 c 128,-1,27
 721 210 721 210 747.5 272 c 128,-1,28
 774 334 774 334 774 403 c 2,29,-1
 774 406 l 2,30,31
 774 432 774 432 800 431 c 256,32,33
 825 432 825 432 825 406 c 0,0,1
EndSplineSet
EndChar

StartChar: b
Encoding: 98 98 25
Width: 931
GlyphClass: 1
Flags: W
LayerCount: 2
Fore
SplineSet
51 381 m 1,0,-1
 51 51 l 1,1,2
 114 56 114 56 171.5 83.5 c 128,-1,3
 229 111 229 111 273.5 155 c 128,-1,4
 318 199 318 199 346 256.5 c 128,-1,5
 374 314 374 314 379 381 c 1,6,-1
 51 381 l 1,0,-1
51 431 m 1,7,-1
 837 431 l 2,8,9
 847 431 847 431 854 424 c 128,-1,10
 861 417 861 417 861 406 c 0,11,12
 861 396 861 396 854 388.5 c 128,-1,13
 847 381 847 381 837 381 c 2,14,-1
 430 381 l 1,15,16
 425 301 425 301 391 232 c 128,-1,17
 357 163 357 163 303 111 c 128,-1,18
 249 59 249 59 177 29.5 c 128,-1,19
 105 0 105 0 26 0 c 2,20,-1
 25 0 l 2,21,22
 15 0 15 0 7.5 7.5 c 128,-1,23
 0 15 0 15 0 26 c 2,24,-1
 0 608 l 2,25,26
 0 634 0 634 26 634 c 0,27,28
 36 634 36 634 43.5 627 c 128,-1,29
 51 620 51 620 51 608 c 2,30,-1
 51 431 l 1,7,-1
EndSplineSet
EndChar

StartChar: d
Encoding: 100 100 26
Width: 922
GlyphClass: 1
Flags: W
LayerCount: 2
Fore
SplineSet
822 381 m 2,0,-1
 441 381 l 1,1,-1
 441 40 l 1,2,-1
 820 -132 l 2,3,4
 834 -138 834 -138 835 -155 c 0,5,6
 835 -166 835 -166 827.5 -173 c 128,-1,7
 820 -180 820 -180 810 -180 c 0,8,9
 808 -180 808 -180 800 -178 c 2,10,-1
 11 180 l 2,11,12
 -3 186 -3 186 -3 204 c 0,13,14
 -3 214 -3 214 4 221 c 128,-1,15
 11 228 11 228 23 228 c 0,16,17
 29 228 29 228 33 226 c 2,18,-1
 391 63 l 1,19,-1
 391 406 l 2,20,21
 391 432 391 432 417 431 c 2,22,-1
 822 431 l 2,23,24
 832 431 832 431 839.5 424 c 128,-1,25
 847 417 847 417 847 406 c 0,26,27
 847 396 847 396 839.5 388.5 c 128,-1,28
 832 381 832 381 822 381 c 2,0,-1
EndSplineSet
EndChar

StartChar: e
Encoding: 101 101 27
Width: 1333
GlyphClass: 1
Flags: W
LayerCount: 2
Fore
SplineSet
1257 411 m 256,0,1
 1257 385 1257 385 1232 385 c 2,2,-1
 821 385 l 1,3,-1
 821 26 l 2,4,5
 821 0 821 0 796 0 c 0,6,7
 786 0 786 0 778 7 c 128,-1,8
 770 14 770 14 770 26 c 2,9,-1
 770 411 l 2,10,11
 770 486 770 486 741.5 551 c 128,-1,12
 713 616 713 616 664 665 c 128,-1,13
 615 714 615 714 549.5 742 c 128,-1,14
 484 770 484 770 411 770 c 0,15,16
 339 770 339 770 274 742 c 128,-1,17
 209 714 209 714 159.5 665 c 128,-1,18
 110 616 110 616 80.5 550.5 c 128,-1,19
 51 485 51 485 51 411 c 0,20,21
 51 385 51 385 26 385 c 256,22,23
 0 385 0 385 0 411 c 0,24,25
 0 496 0 496 32.5 570.5 c 128,-1,26
 65 645 65 645 121 701 c 128,-1,27
 177 757 177 757 251.5 789 c 128,-1,28
 326 821 326 821 411 821 c 0,29,30
 493 821 493 821 565.5 791.5 c 128,-1,31
 638 762 638 762 693.5 709.5 c 128,-1,32
 749 657 749 657 782.5 587 c 128,-1,33
 816 517 816 517 821 436 c 1,34,-1
 1232 436 l 2,35,36
 1257 437 1257 437 1257 411 c 256,0,1
EndSplineSet
EndChar

StartChar: f
Encoding: 102 102 28
Width: 946
GlyphClass: 1
Flags: W
LayerCount: 2
Fore
SplineSet
861 40 m 1,0,-1
 1240 -132 l 2,1,2
 1254 -138 1254 -138 1254 -155 c 0,3,4
 1254 -166 1254 -166 1247 -173 c 128,-1,5
 1240 -180 1240 -180 1230 -180 c 0,6,7
 1228 -180 1228 -180 1220 -178 c 2,8,-1
 431 180 l 2,9,10
 417 186 417 186 417 203 c 0,11,12
 417 229 417 229 442 228 c 0,13,14
 444 228 444 228 453 226 c 2,15,-1
 811 63 l 1,16,-1
 811 583 l 1,17,-1
 25 583 l 2,18,19
 15 583 15 583 7.5 590 c 128,-1,20
 0 597 0 597 0 608 c 256,21,22
 0 619 0 619 7 626.5 c 128,-1,23
 14 634 14 634 25 634 c 2,24,-1
 836 634 l 1,25,-1
 837 634 l 2,26,27
 847 634 847 634 854 627 c 128,-1,28
 861 620 861 620 861 608 c 2,29,-1
 861 40 l 1,0,-1
EndSplineSet
EndChar

StartChar: g
Encoding: 103 103 29
Width: 890
GlyphClass: 1
Flags: W
LayerCount: 2
Fore
SplineSet
408 -101 m 256,0,1
 428 -101 428 -101 443.5 -116 c 128,-1,2
 459 -131 459 -131 459 -153 c 0,3,4
 459 -173 459 -173 443.5 -188 c 128,-1,5
 428 -203 428 -203 408 -203 c 256,6,7
 388 -203 388 -203 372 -188 c 128,-1,8
 356 -173 356 -173 356 -153 c 0,9,10
 356 -131 356 -131 372 -116 c 128,-1,11
 388 -101 388 -101 408 -101 c 256,0,1
814 605 m 1,12,-1
 814 404 l 2,13,14
 814 321 814 321 782.5 247.5 c 128,-1,15
 751 174 751 174 695.5 118.5 c 128,-1,16
 640 63 640 63 566 31.5 c 128,-1,17
 492 0 492 0 408 0 c 0,18,19
 323 0 323 0 249 31.5 c 128,-1,20
 175 63 175 63 120 118 c 128,-1,21
 65 173 65 173 33 247 c 128,-1,22
 1 321 1 321 1 404 c 0,23,24
 1 430 1 430 27 430 c 0,25,26
 37 430 37 430 44 423 c 128,-1,27
 51 416 51 416 51 404 c 0,28,29
 51 330 51 330 79.5 266 c 128,-1,30
 108 202 108 202 156 153.5 c 128,-1,31
 204 105 204 105 269 77.5 c 128,-1,32
 334 50 334 50 408 50 c 256,33,34
 482 50 482 50 546 77.5 c 128,-1,35
 610 105 610 105 658.5 153.5 c 128,-1,36
 707 202 707 202 735 266.5 c 128,-1,37
 763 331 763 331 763 404 c 2,38,-1
 763 582 l 1,39,-1
 408 582 l 2,40,41
 397 582 397 582 389.5 589 c 128,-1,42
 382 596 382 596 382 606 c 0,43,44
 382 632 382 632 408 632 c 2,45,-1
 788 632 l 1,46,-1
 790 632 l 1,47,-1
 791 632 l 1,48,-1
 792 632 l 1,49,-1
 793 632 l 1,50,-1
 794 632 l 2,51,52
 795 631 795 631 796 631 c 2,53,-1
 797 631 l 1,54,-1
 798 630 l 1,55,-1
 799 630 l 2,56,57
 800 630 800 630 801 629 c 0,58,59
 809 624 809 624 812 615 c 0,60,61
 814 607 814 607 814 606 c 2,62,-1
 814 605 l 1,12,-1
EndSplineSet
EndChar

StartChar: h
Encoding: 104 104 30
Width: 887
GlyphClass: 1
Flags: W
LayerCount: 2
Fore
SplineSet
406 457 m 256,0,1
 426 457 426 457 441 441.5 c 128,-1,2
 456 426 456 426 456 406 c 256,3,4
 456 386 456 386 441 370.5 c 128,-1,5
 426 355 426 355 406 355 c 256,6,7
 386 355 386 355 370.5 370 c 128,-1,8
 355 385 355 385 355 406 c 256,9,10
 355 426 355 426 370.5 441.5 c 128,-1,11
 386 457 386 457 406 457 c 256,0,1
811 407 m 2,12,-1
 811 26 l 2,13,14
 811 0 811 0 785 0 c 0,15,16
 775 0 775 0 768 7 c 128,-1,17
 761 14 761 14 761 26 c 1,18,-1
 760 26 l 1,19,-1
 760 406 l 2,20,21
 760 480 760 480 731.5 544.5 c 128,-1,22
 703 609 703 609 655 657.5 c 128,-1,23
 607 706 607 706 542.5 733.5 c 128,-1,24
 478 761 478 761 406 761 c 0,25,26
 335 761 335 761 270.5 733.5 c 128,-1,27
 206 706 206 706 157.5 657 c 128,-1,28
 109 608 109 608 80 543.5 c 128,-1,29
 51 479 51 479 51 406 c 1,30,-1
 50 406 l 1,31,32
 50 395 50 395 43 387.5 c 128,-1,33
 36 380 36 380 26 380 c 0,34,35
 0 380 0 380 0 406 c 0,36,37
 0 490 0 490 31.5 563.5 c 128,-1,38
 63 637 63 637 118.5 692.5 c 128,-1,39
 174 748 174 748 248 779.5 c 128,-1,40
 322 811 322 811 406 811 c 256,41,42
 490 811 490 811 563.5 779.5 c 128,-1,43
 637 748 637 748 692.5 693 c 128,-1,44
 748 638 748 638 779.5 564.5 c 128,-1,45
 811 491 811 491 811 407 c 2,12,-1
EndSplineSet
EndChar

StartChar: j
Encoding: 106 106 31
Width: 901
GlyphClass: 1
Flags: W
LayerCount: 2
Fore
SplineSet
441 41 m 1,0,-1
 820 -132 l 2,1,2
 835 -140 835 -140 836 -155 c 0,3,4
 836 -181 836 -181 810 -180 c 0,5,6
 808 -180 808 -180 800 -178 c 2,7,-1
 11 180 l 1,8,-1
 12 180 l 1,9,10
 -3 187 -3 187 -3 204 c 0,11,12
 -3 214 -3 214 4 221 c 128,-1,13
 11 228 11 228 23 228 c 0,14,15
 29 228 29 228 33 226 c 2,16,-1
 391 63 l 1,17,-1
 391 406 l 2,18,19
 391 490 391 490 423 563.5 c 128,-1,20
 455 637 455 637 509.5 692.5 c 128,-1,21
 564 748 564 748 638 779.5 c 128,-1,22
 712 811 712 811 797 811 c 0,23,24
 807 811 807 811 814 804 c 128,-1,25
 821 797 821 797 821 785 c 0,26,27
 821 775 821 775 814 768 c 128,-1,28
 807 761 807 761 797 761 c 1,29,-1
 797 760 l 1,30,31
 724 760 724 760 659.5 732.5 c 128,-1,32
 595 705 595 705 546.5 657 c 128,-1,33
 498 609 498 609 469.5 544 c 128,-1,34
 441 479 441 479 441 406 c 2,35,-1
 441 41 l 1,0,-1
644 407 m 0,36,37
 644 427 644 427 659 442 c 128,-1,38
 674 457 674 457 695 457 c 0,39,40
 715 457 715 457 730 442 c 128,-1,41
 745 427 745 427 745 407 c 0,42,43
 745 385 745 385 730.5 370 c 128,-1,44
 716 355 716 355 695 355 c 0,45,46
 673 355 673 355 658.5 370 c 128,-1,47
 644 385 644 385 644 407 c 0,36,37
EndSplineSet
EndChar

StartChar: k
Encoding: 107 107 32
Width: 887
GlyphClass: 1
Flags: W
LayerCount: 2
Fore
SplineSet
785 431 m 0,0,1
 811 431 811 431 811 406 c 0,2,3
 811 322 811 322 779.5 248 c 128,-1,4
 748 174 748 174 692.5 118.5 c 128,-1,5
 637 63 637 63 563 31.5 c 128,-1,6
 489 0 489 0 406 0 c 256,7,8
 322 0 322 0 248 31.5 c 128,-1,9
 174 63 174 63 118.5 118.5 c 128,-1,10
 63 174 63 174 31.5 248 c 128,-1,11
 0 322 0 322 0 406 c 0,12,13
 0 432 0 432 26 431 c 0,14,15
 36 431 36 431 43 424 c 128,-1,16
 50 417 50 417 50 406 c 1,17,-1
 51 406 l 1,18,19
 51 332 51 332 79.5 267 c 128,-1,20
 108 202 108 202 156 154 c 128,-1,21
 204 106 204 106 268.5 78.5 c 128,-1,22
 333 51 333 51 406 51 c 0,23,24
 477 51 477 51 541 78.5 c 128,-1,25
 605 106 605 106 653.5 154.5 c 128,-1,26
 702 203 702 203 731 267.5 c 128,-1,27
 760 332 760 332 760 406 c 1,28,-1
 761 406 l 1,29,30
 761 417 761 417 768 424 c 128,-1,31
 775 431 775 431 785 431 c 0,0,1
EndSplineSet
EndChar

StartChar: l
Encoding: 108 108 33
Width: 887
GlyphClass: 1
Flags: W
LayerCount: 2
Fore
SplineSet
785 431 m 0,0,1
 811 431 811 431 811 406 c 2,2,-1
 811 404 l 2,3,4
 811 320 811 320 779.5 246.5 c 128,-1,5
 748 173 748 173 692.5 118 c 128,-1,6
 637 63 637 63 563 31.5 c 128,-1,7
 489 0 489 0 406 0 c 256,8,9
 322 0 322 0 248 31.5 c 128,-1,10
 174 63 174 63 118.5 118.5 c 128,-1,11
 63 174 63 174 31.5 248 c 128,-1,12
 0 322 0 322 0 406 c 2,13,-1
 0 607 l 1,14,-1
 0 608 l 1,15,16
 0 608 0 608 2 616 c 0,17,18
 5 626 5 626 15 630.5 c 128,-1,19
 25 635 25 635 34 632 c 2,20,-1
 415 488 l 2,21,22
 425 484 425 484 429 475 c 128,-1,23
 433 466 433 466 429 457 c 0,24,25
 425 447 425 447 416 442 c 128,-1,26
 407 437 407 437 396 441 c 2,27,-1
 51 571 l 1,28,-1
 51 406 l 2,29,30
 51 332 51 332 78.5 267.5 c 128,-1,31
 106 203 106 203 154.5 154.5 c 128,-1,32
 203 106 203 106 267.5 78 c 128,-1,33
 332 50 332 50 406 50 c 256,34,35
 480 50 480 50 544 77.5 c 128,-1,36
 608 105 608 105 656.5 153.5 c 128,-1,37
 705 202 705 202 733 267 c 128,-1,38
 761 332 761 332 761 406 c 0,39,40
 761 417 761 417 768 424 c 128,-1,41
 775 431 775 431 785 431 c 0,0,1
EndSplineSet
EndChar

StartChar: m
Encoding: 109 109 34
Width: 884
GlyphClass: 1
Flags: W
LayerCount: 2
Fore
SplineSet
811 786 m 2,0,-1
 811 406 l 2,1,2
 811 322 811 322 779.5 248 c 128,-1,3
 748 174 748 174 692.5 118.5 c 128,-1,4
 637 63 637 63 563 31.5 c 128,-1,5
 489 0 489 0 406 0 c 256,6,7
 322 0 322 0 248 31.5 c 128,-1,8
 174 63 174 63 118.5 118.5 c 128,-1,9
 63 174 63 174 31.5 248 c 128,-1,10
 0 322 0 322 0 406 c 0,11,12
 0 432 0 432 26 431 c 0,13,14
 36 431 36 431 43 424 c 128,-1,15
 50 417 50 417 50 406 c 1,16,-1
 51 406 l 1,17,18
 51 332 51 332 79.5 267 c 128,-1,19
 108 202 108 202 156 154 c 128,-1,20
 204 106 204 106 268.5 78.5 c 128,-1,21
 333 51 333 51 406 51 c 0,22,23
 477 51 477 51 541 78.5 c 128,-1,24
 605 106 605 106 653.5 154.5 c 128,-1,25
 702 203 702 203 731 267.5 c 128,-1,26
 760 332 760 332 760 406 c 1,27,-1
 767 406 l 1,28,-1
 760 406 l 1,29,-1
 760 761 l 1,30,-1
 26 761 l 2,31,32
 0 761 0 761 0 786 c 0,33,34
 0 796 0 796 7 803.5 c 128,-1,35
 14 811 14 811 26 811 c 2,36,-1
 785 811 l 2,37,38
 796 811 796 811 803.5 803.5 c 128,-1,39
 811 796 811 796 811 786 c 2,0,-1
EndSplineSet
EndChar

StartChar: n
Encoding: 110 110 35
Width: 884
GlyphClass: 1
Flags: W
LayerCount: 2
Fore
SplineSet
811 26 m 0,0,1
 811 0 811 0 785 0 c 0,2,3
 775 0 775 0 768 7 c 128,-1,4
 761 14 761 14 761 26 c 1,5,-1
 760 26 l 1,6,7
 760 97 760 97 734.5 159 c 128,-1,8
 709 221 709 221 664.5 268.5 c 128,-1,9
 620 316 620 316 560 345.5 c 128,-1,10
 500 375 500 375 431 380 c 1,11,-1
 431 26 l 2,12,13
 431 0 431 0 406 0 c 256,14,15
 380 0 380 0 380 26 c 2,16,-1
 380 380 l 1,17,18
 313 375 313 375 253.5 345.5 c 128,-1,19
 194 316 194 316 148.5 268.5 c 128,-1,20
 103 221 103 221 77 158.5 c 128,-1,21
 51 96 51 96 51 26 c 1,22,-1
 50 26 l 1,23,24
 50 15 50 15 43 7.5 c 128,-1,25
 36 0 36 0 26 0 c 0,26,27
 0 0 0 0 0 26 c 0,28,29
 0 107 0 107 29.5 178.5 c 128,-1,30
 59 250 59 250 110.5 304 c 128,-1,31
 162 358 162 358 231.5 391.5 c 128,-1,32
 301 425 301 425 380 430 c 1,33,-1
 380 608 l 2,34,35
 380 634 380 634 406 634 c 256,36,37
 432 634 432 634 431 608 c 2,38,-1
 431 430 l 1,39,40
 511 425 511 425 580 391.5 c 128,-1,41
 649 358 649 358 701 303.5 c 128,-1,42
 753 249 753 249 782 178 c 128,-1,43
 811 107 811 107 811 26 c 0,0,1
EndSplineSet
EndChar

StartChar: p
Encoding: 112 112 36
Width: 911
GlyphClass: 1
Flags: W
LayerCount: 2
Fore
SplineSet
431 253 m 4,0,1
 451 253 451 253 466 238 c 132,-1,2
 481 223 481 223 481 203 c 4,3,4
 481 181 481 181 466.5 166.5 c 132,-1,5
 452 152 452 152 431 152 c 4,6,7
 409 152 409 152 394.5 166.5 c 132,-1,8
 380 181 380 181 380 203 c 4,9,10
 380 223 380 223 394.5 238 c 132,-1,11
 409 253 409 253 431 253 c 4,0,1
837 406 m 2,12,-1
 837 26 l 2,13,14
 837 0 837 0 811 0 c 256,15,16
 785 0 785 0 785 26 c 2,17,-1
 785 380 l 1,18,-1
 26 380 l 2,19,20
 0 380 0 380 0 406 c 256,21,22
 0 432 0 432 26 431 c 2,23,-1
 811 431 l 2,24,25
 821 431 821 431 829 424 c 128,-1,26
 837 417 837 417 837 406 c 2,12,-1
EndSplineSet
EndChar

StartChar: q
Encoding: 113 113 37
Width: 890
GlyphClass: 1
Flags: W
LayerCount: 2
Fore
SplineSet
810 406 m 0,0,1
 810 325 810 325 780.5 253 c 128,-1,2
 751 181 751 181 699 127 c 128,-1,3
 647 73 647 73 578 39 c 128,-1,4
 509 5 509 5 430 1 c 1,5,-1
 430 -76 l 1,6,-1
 607 -76 l 2,7,8
 633 -76 633 -76 633 -101 c 0,9,10
 633 -111 633 -111 625.5 -118.5 c 128,-1,11
 618 -126 618 -126 607 -126 c 2,12,-1
 202 -126 l 2,13,14
 191 -126 191 -126 183.5 -119 c 128,-1,15
 176 -112 176 -112 176 -101 c 0,16,17
 176 -75 176 -75 202 -76 c 2,18,-1
 379 -76 l 1,19,-1
 379 1 l 1,20,21
 299 5 299 5 230 39 c 128,-1,22
 161 73 161 73 109 127 c 128,-1,23
 57 181 57 181 28 253 c 128,-1,24
 -1 325 -1 325 -1 406 c 0,25,26
 -1 432 -1 432 25 431 c 0,27,28
 35 431 35 431 42 424 c 128,-1,29
 49 417 49 417 49 406 c 1,30,-1
 50 406 l 1,31,32
 50 335 50 335 75.5 272.5 c 128,-1,33
 101 210 101 210 145.5 162.5 c 128,-1,34
 190 115 190 115 250 85.5 c 128,-1,35
 310 56 310 56 379 51 c 1,36,-1
 379 406 l 2,37,38
 379 432 379 432 404 431 c 256,39,40
 430 431 430 431 430 406 c 2,41,-1
 430 51 l 1,42,43
 497 56 497 56 556.5 85.5 c 128,-1,44
 616 115 616 115 661.5 162.5 c 128,-1,45
 707 210 707 210 733 272.5 c 128,-1,46
 759 335 759 335 759 406 c 1,47,-1
 760 406 l 1,48,49
 760 417 760 417 767 424 c 128,-1,50
 774 431 774 431 784 431 c 0,51,52
 810 432 810 432 810 406 c 0,0,1
EndSplineSet
EndChar

StartChar: r
Encoding: 114 114 38
Width: 519
GlyphClass: 1
Flags: W
LayerCount: 2
Fore
SplineSet
443 40 m 1,0,-1
 822 -132 l 2,1,2
 836 -138 836 -138 837 -155 c 0,3,4
 837 -166 837 -166 829.5 -173 c 128,-1,5
 822 -180 822 -180 812 -180 c 0,6,7
 810 -180 810 -180 802 -178 c 2,8,-1
 13 180 l 2,9,10
 -1 186 -1 186 -1 204 c 0,11,12
 -1 214 -1 214 6 221 c 128,-1,13
 13 228 13 228 25 228 c 0,14,15
 31 228 31 228 35 226 c 2,16,-1
 393 63 l 1,17,-1
 393 389 l 1,18,-1
 13 562 l 2,19,20
 -1 568 -1 568 -1 586 c 0,21,22
 -1 596 -1 596 6 603 c 128,-1,23
 13 610 13 610 25 610 c 0,24,25
 31 610 31 610 35 608 c 2,26,-1
 393 445 l 1,27,-1
 393 608 l 2,28,29
 393 634 393 634 419 634 c 0,30,31
 429 634 429 634 436 627 c 128,-1,32
 443 620 443 620 443 608 c 2,33,-1
 443 40 l 1,0,-1
EndSplineSet
EndChar

StartChar: s
Encoding: 115 115 39
Width: 890
GlyphClass: 1
Flags: W
LayerCount: 2
Fore
SplineSet
406 558 m 256,0,1
 386 558 386 558 370.5 573 c 128,-1,2
 355 588 355 588 355 608 c 0,3,4
 355 630 355 630 370 644.5 c 128,-1,5
 385 659 385 659 406 659 c 256,6,7
 426 659 426 659 441 644.5 c 128,-1,8
 456 630 456 630 456 608 c 0,9,10
 456 588 456 588 441 573 c 128,-1,11
 426 558 426 558 406 558 c 256,0,1
406 355 m 256,12,13
 386 355 386 355 370.5 370 c 128,-1,14
 355 385 355 385 355 406 c 0,15,16
 355 428 355 428 370 442.5 c 128,-1,17
 385 457 385 457 406 457 c 256,18,19
 426 457 426 457 441 442 c 128,-1,20
 456 427 456 427 456 406 c 0,21,22
 456 386 456 386 441 370.5 c 128,-1,23
 426 355 426 355 406 355 c 256,12,13
785 431 m 0,24,25
 811 431 811 431 811 406 c 0,26,27
 811 322 811 322 779.5 248 c 128,-1,28
 748 174 748 174 692.5 118.5 c 128,-1,29
 637 63 637 63 563 31.5 c 128,-1,30
 489 0 489 0 406 0 c 256,31,32
 322 0 322 0 248 31.5 c 128,-1,33
 174 63 174 63 118.5 118.5 c 128,-1,34
 63 174 63 174 31.5 248 c 128,-1,35
 0 322 0 322 0 406 c 0,36,37
 0 432 0 432 26 431 c 0,38,39
 36 431 36 431 43 424 c 128,-1,40
 50 417 50 417 50 406 c 1,41,-1
 51 406 l 1,42,43
 51 332 51 332 79.5 267 c 128,-1,44
 108 202 108 202 156 154 c 128,-1,45
 204 106 204 106 268.5 78.5 c 128,-1,46
 333 51 333 51 406 51 c 0,47,48
 477 51 477 51 541 78.5 c 128,-1,49
 605 106 605 106 653.5 154.5 c 128,-1,50
 702 203 702 203 731 267.5 c 128,-1,51
 760 332 760 332 760 406 c 1,52,-1
 761 406 l 1,53,54
 761 417 761 417 768 424 c 128,-1,55
 775 431 775 431 785 431 c 0,24,25
EndSplineSet
EndChar

StartChar: t
Encoding: 116 116 40
Width: 512
GlyphClass: 1
Flags: W
LayerCount: 2
Fore
SplineSet
444 608 m 2,0,-1
 444 26 l 2,1,2
 444 15 444 15 437 7.5 c 128,-1,3
 430 0 430 0 420 0 c 0,4,5
 394 0 394 0 394 26 c 2,6,-1
 394 390 l 1,7,-1
 14 562 l 2,8,9
 0 568 0 568 0 586 c 0,10,11
 0 596 0 596 7 603 c 128,-1,12
 14 610 14 610 26 610 c 0,13,14
 32 610 32 610 36 608 c 2,15,-1
 394 445 l 1,16,-1
 394 608 l 2,17,18
 394 634 394 634 420 634 c 0,19,20
 430 634 430 634 437 626.5 c 128,-1,21
 444 619 444 619 444 608 c 2,0,-1
EndSplineSet
EndChar

StartChar: u
Encoding: 117 117 41
Width: 914
GlyphClass: 1
Flags: W
LayerCount: 2
Fore
SplineSet
837 406 m 2,0,-1
 837 26 l 2,1,2
 837 0 837 0 811 0 c 256,3,4
 785 0 785 0 785 26 c 2,5,-1
 785 177 l 1,6,-1
 431 177 l 2,7,8
 405 177 405 177 406 203 c 256,9,10
 406 229 406 229 431 228 c 2,11,-1
 785 228 l 1,12,-1
 785 380 l 1,13,-1
 26 380 l 2,14,15
 0 380 0 380 0 406 c 256,16,17
 0 432 0 432 26 431 c 2,18,-1
 811 431 l 2,19,20
 821 431 821 431 829 424 c 128,-1,21
 837 417 837 417 837 406 c 2,0,-1
EndSplineSet
EndChar

StartChar: w
Encoding: 119 119 42
Width: 1317
GlyphClass: 1
Flags: W
LayerCount: 2
Fore
SplineSet
406 51 m 0,0,1
 474 51 474 51 535.5 76.5 c 128,-1,2
 597 102 597 102 645 146.5 c 128,-1,3
 693 191 693 191 724 251 c 128,-1,4
 755 311 755 311 760 381 c 1,5,-1
 52 381 l 1,6,7
 56 311 56 311 86 250.5 c 128,-1,8
 116 190 116 190 164 145.5 c 128,-1,9
 212 101 212 101 274 76 c 128,-1,10
 336 51 336 51 406 51 c 0,0,1
26 431 m 2,11,-1
 1217 431 l 2,12,13
 1243 431 1243 431 1242 406 c 0,14,15
 1242 396 1242 396 1235 388.5 c 128,-1,16
 1228 381 1228 381 1217 381 c 2,17,-1
 810 381 l 1,18,19
 805 301 805 301 771 232 c 128,-1,20
 737 163 737 163 683 111 c 128,-1,21
 629 59 629 59 557 29.5 c 128,-1,22
 485 0 485 0 406 0 c 0,23,24
 322 0 322 0 248 31.5 c 128,-1,25
 174 63 174 63 118.5 118.5 c 128,-1,26
 63 174 63 174 31.5 248 c 128,-1,27
 0 322 0 322 0 406 c 0,28,29
 0 431 0 431 26 431 c 2,11,-1
EndSplineSet
EndChar

StartChar: x
Encoding: 120 120 43
Width: 882
GlyphClass: 1
Flags: W
LayerCount: 2
Fore
SplineSet
402 583 m 2,0,-1
 51 583 l 1,1,-1
 51 228 l 1,2,-1
 761 228 l 1,3,4
 761 302 761 302 732 367 c 128,-1,5
 703 432 703 432 654 479.5 c 128,-1,6
 605 527 605 527 540 555 c 128,-1,7
 475 583 475 583 402 583 c 2,0,-1
811 236 m 2,8,-1
 811 26 l 2,9,10
 811 0 811 0 785 0 c 0,11,12
 775 0 775 0 768 7 c 128,-1,13
 761 14 761 14 761 26 c 2,14,-1
 761 177 l 1,15,-1
 26 177 l 2,16,17
 0 177 0 177 0 203 c 2,18,-1
 0 583 l 1,19,-1
 0 634 l 1,20,-1
 0 785 l 2,21,22
 0 811 0 811 26 811 c 0,23,24
 36 811 36 811 43.5 804 c 128,-1,25
 51 797 51 797 51 785 c 2,26,-1
 51 634 l 1,27,-1
 406 634 l 2,28,29
 489 634 489 634 562.5 602.5 c 128,-1,30
 636 571 636 571 691 517 c 128,-1,31
 746 463 746 463 778.5 390.5 c 128,-1,32
 811 318 811 318 811 236 c 2,8,-1
EndSplineSet
EndChar

StartChar: y
Encoding: 121 121 44
Width: 1297
GlyphClass: 1
Flags: W
LayerCount: 2
Fore
SplineSet
1212 407 m 2,0,-1
 1212 4 l 2,1,2
 1212 -3 1212 -3 1209 -7 c 0,3,4
 1170 -96 1170 -96 1109 -169 c 128,-1,5
 1048 -242 1048 -242 969.5 -293.5 c 128,-1,6
 891 -345 891 -345 799 -373.5 c 128,-1,7
 707 -402 707 -402 607 -402 c 0,8,9
 509 -402 509 -402 416.5 -373.5 c 128,-1,10
 324 -345 324 -345 245 -293 c 128,-1,11
 166 -241 166 -241 104 -168 c 128,-1,12
 42 -95 42 -95 4 -6 c 0,13,14
 2 2 2 2 2 4 c 0,15,16
 2 30 2 30 28 30 c 0,17,18
 44 30 44 30 51 13 c 0,19,20
 87 -70 87 -70 144.5 -137.5 c 128,-1,21
 202 -205 202 -205 274.5 -252.5 c 128,-1,22
 347 -300 347 -300 431.5 -325.5 c 128,-1,23
 516 -351 516 -351 607 -351 c 0,24,25
 697 -351 697 -351 781 -325.5 c 128,-1,26
 865 -300 865 -300 937.5 -253 c 128,-1,27
 1010 -206 1010 -206 1067.5 -139.5 c 128,-1,28
 1125 -73 1125 -73 1162 9 c 1,29,-1
 1162 407 l 2,30,31
 1162 417 1162 417 1169.5 424 c 128,-1,32
 1177 431 1177 431 1187 431 c 0,33,34
 1198 431 1198 431 1205 424 c 128,-1,35
 1212 417 1212 417 1212 407 c 2,0,-1
EndSplineSet
EndChar

StartChar: z
Encoding: 122 122 45
Width: 882
GlyphClass: 1
Flags: W
LayerCount: 2
Fore
SplineSet
811 403 m 1,0,-1
 811 402 l 2,1,2
 811 319 811 319 779.5 246 c 128,-1,3
 748 173 748 173 692.5 118 c 128,-1,4
 637 63 637 63 563 31.5 c 128,-1,5
 489 0 489 0 406 0 c 256,6,7
 322 0 322 0 248 31.5 c 128,-1,8
 174 63 174 63 118.5 118 c 128,-1,9
 63 173 63 173 31.5 247 c 128,-1,10
 0 321 0 321 0 404 c 2,11,-1
 0 406 l 2,12,13
 0 432 0 432 26 431 c 0,14,15
 36 431 36 431 43 424 c 128,-1,16
 50 417 50 417 50 406 c 0,17,18
 50 332 50 332 78 267 c 128,-1,19
 106 202 106 202 154.5 153.5 c 128,-1,20
 203 105 203 105 267.5 77.5 c 128,-1,21
 332 50 332 50 406 50 c 0,22,23
 479 50 479 50 543 77.5 c 128,-1,24
 607 105 607 105 655 153.5 c 128,-1,25
 703 202 703 202 731.5 266 c 128,-1,26
 760 330 760 330 760 402 c 2,27,-1
 760 571 l 1,28,-1
 415 441 l 2,29,30
 405 437 405 437 395.5 441.5 c 128,-1,31
 386 446 386 446 382 457 c 0,32,33
 378 466 378 466 382.5 475.5 c 128,-1,34
 387 485 387 485 396 488 c 2,35,-1
 777 632 l 2,36,37
 786 635 786 635 796 631 c 128,-1,38
 806 627 806 627 809 616 c 0,39,40
 811 608 811 608 811 608 c 1,41,-1
 811 607 l 1,42,-1
 811 406 l 1,43,-1
 811 403 l 1,0,-1
EndSplineSet
EndChar

StartChar: B
Encoding: 66 66 46
Width: 429
GlyphClass: 1
Flags: W
LayerCount: 2
Fore
SplineSet
51 381 m 1,0,-1
 51 51 l 1,1,2
 114 56 114 56 171.5 83.5 c 128,-1,3
 229 111 229 111 273.5 155 c 128,-1,4
 318 199 318 199 346 256.5 c 128,-1,5
 374 314 374 314 379 381 c 1,6,-1
 51 381 l 1,0,-1
51 431 m 1,7,-1
 837 431 l 2,8,9
 847 431 847 431 854 424 c 128,-1,10
 861 417 861 417 861 406 c 0,11,12
 861 396 861 396 854 388.5 c 128,-1,13
 847 381 847 381 837 381 c 2,14,-1
 430 381 l 1,15,16
 425 301 425 301 391 232 c 128,-1,17
 357 163 357 163 303 111 c 128,-1,18
 249 59 249 59 177 29.5 c 128,-1,19
 105 0 105 0 26 0 c 2,20,-1
 25 0 l 2,21,22
 15 0 15 0 7.5 7.5 c 128,-1,23
 0 15 0 15 0 26 c 2,24,-1
 0 608 l 2,25,26
 0 634 0 634 26 634 c 0,27,28
 36 634 36 634 43.5 627 c 128,-1,29
 51 620 51 620 51 608 c 2,30,-1
 51 431 l 1,7,-1
EndSplineSet
EndChar

StartChar: A
Encoding: 65 65 47
Width: 751
GlyphClass: 1
Flags: W
LayerCount: 2
Fore
SplineSet
710 406 m 0,0,1
 710 322 710 322 678 248 c 128,-1,2
 646 174 646 174 591 118.5 c 128,-1,3
 536 63 536 63 462 31.5 c 128,-1,4
 388 0 388 0 304 0 c 0,5,6
 294 0 294 0 287 7.5 c 128,-1,7
 280 15 280 15 280 26 c 2,8,-1
 280 389 l 1,9,-1
 -99 562 l 2,10,11
 -114 569 -114 569 -115 585 c 0,12,13
 -115 611 -115 611 -89 610 c 0,14,15
 -87 610 -87 610 -79 608 c 2,16,-1
 280 445 l 1,17,-1
 280 608 l 2,18,19
 280 619 280 619 287 626.5 c 128,-1,20
 294 634 294 634 304 634 c 0,21,22
 330 634 330 634 330 608 c 2,23,-1
 330 52 l 1,24,25
 396 57 396 57 455.5 86.5 c 128,-1,26
 515 116 515 116 560 163 c 128,-1,27
 605 210 605 210 631.5 272 c 128,-1,28
 658 334 658 334 658 403 c 2,29,-1
 658 406 l 2,30,31
 658 432 658 432 684 431 c 256,32,33
 710 432 710 432 710 406 c 0,0,1
EndSplineSet
EndChar

StartChar: ey
Encoding: 65537 -1 50
Width: 0
VWidth: 0
GlyphClass: 1
Flags: W
LayerCount: 2
Fore
SplineSet
1260 411 m 256,0,1
 1260 385 1260 385 1234 385 c 2,2,-1
 823 385 l 1,3,-1
 823 26 l 2,4,5
 823 0 823 0 798 0 c 0,6,7
 788 0 788 0 780 7 c 128,-1,8
 772 14 772 14 772 26 c 2,9,-1
 772 411 l 2,10,11
 772 486 772 486 743.5 551 c 128,-1,12
 715 616 715 616 666 665 c 128,-1,13
 617 714 617 714 551.5 742 c 128,-1,14
 486 770 486 770 413 770 c 0,15,16
 341 770 341 770 276 742 c 128,-1,17
 211 714 211 714 161.5 665 c 128,-1,18
 112 616 112 616 82.5 550.5 c 128,-1,19
 53 485 53 485 53 411 c 0,20,21
 53 385 53 385 28 385 c 256,22,23
 2 385 2 385 2 411 c 0,24,25
 2 496 2 496 34.5 570.5 c 128,-1,26
 67 645 67 645 123 701 c 128,-1,27
 179 757 179 757 253.5 789 c 128,-1,28
 328 821 328 821 413 821 c 0,29,30
 495 821 495 821 567.5 791.5 c 128,-1,31
 640 762 640 762 695.5 709.5 c 128,-1,32
 751 657 751 657 784.5 587 c 128,-1,33
 818 517 818 517 823 436 c 1,34,-1
 1234 436 l 2,35,36
 1260 437 1260 437 1260 411 c 256,0,1
2136 407 m 2,37,-1
 2136 4 l 2,38,39
 2136 -3 2136 -3 2133 -7 c 0,40,41
 2094 -96 2094 -96 2032.5 -169 c 128,-1,42
 1971 -242 1971 -242 1893 -293.5 c 128,-1,43
 1815 -345 1815 -345 1722.5 -373.5 c 128,-1,44
 1630 -402 1630 -402 1531 -402 c 0,45,46
 1433 -402 1433 -402 1340 -373.5 c 128,-1,47
 1247 -345 1247 -345 1168.5 -293 c 128,-1,48
 1090 -241 1090 -241 1028 -168 c 128,-1,49
 966 -95 966 -95 928 -6 c 0,50,51
 926 2 926 2 926 4 c 0,52,53
 926 30 926 30 951 30 c 0,54,55
 967 30 967 30 975 13 c 0,56,57
 1011 -70 1011 -70 1068 -137.5 c 128,-1,58
 1125 -205 1125 -205 1198 -252.5 c 128,-1,59
 1271 -300 1271 -300 1355.5 -325.5 c 128,-1,60
 1440 -351 1440 -351 1531 -351 c 0,61,62
 1621 -351 1621 -351 1705 -325.5 c 128,-1,63
 1789 -300 1789 -300 1861 -253 c 128,-1,64
 1933 -206 1933 -206 1991 -139.5 c 128,-1,65
 2049 -73 2049 -73 2086 9 c 1,66,-1
 2086 407 l 2,67,68
 2086 417 2086 417 2093 424 c 128,-1,69
 2100 431 2100 431 2110 431 c 0,70,71
 2121 431 2121 431 2128.5 424 c 128,-1,72
 2136 417 2136 417 2136 407 c 2,37,-1
EndSplineSet
EndChar

StartChar: C
Encoding: 67 67 51
Width: 647
Flags: W
LayerCount: 2
Fore
SplineSet
200 355 m 256,0,1
 180 355 180 355 165 370 c 128,-1,2
 150 385 150 385 150 406 c 0,3,4
 150 428 150 428 164.5 442.5 c 128,-1,5
 179 457 179 457 200 457 c 256,6,7
 220 457 220 457 235 442 c 128,-1,8
 250 427 250 427 250 406 c 0,9,10
 250 386 250 386 235 370.5 c 128,-1,11
 220 355 220 355 200 355 c 256,0,1
580 431 m 0,12,13
 606 431 606 431 605 406 c 0,14,15
 605 322 605 322 573.5 248 c 128,-1,16
 542 174 542 174 486.5 118.5 c 128,-1,17
 431 63 431 63 357.5 31.5 c 128,-1,18
 284 0 284 0 200 0 c 256,19,20
 116 0 116 0 42 31.5 c 128,-1,21
 -32 63 -32 63 -87 118.5 c 128,-1,22
 -142 174 -142 174 -174 248 c 128,-1,23
 -206 322 -206 322 -206 406 c 0,24,25
 -206 432 -206 432 -180 431 c 0,26,27
 -170 431 -170 431 -163 424 c 128,-1,28
 -156 417 -156 417 -156 406 c 1,29,-1
 -155 406 l 1,30,31
 -155 332 -155 332 -126.5 267 c 128,-1,32
 -98 202 -98 202 -50 154 c 128,-1,33
 -2 106 -2 106 62.5 78.5 c 128,-1,34
 127 51 127 51 200 51 c 0,35,36
 271 51 271 51 335 78.5 c 128,-1,37
 399 106 399 106 448 154.5 c 128,-1,38
 497 203 497 203 525.5 267.5 c 128,-1,39
 554 332 554 332 554 406 c 1,40,-1
 555 406 l 1,41,42
 555 417 555 417 562.5 424 c 128,-1,43
 570 431 570 431 580 431 c 0,12,13
EndSplineSet
EndChar

StartChar: c
Encoding: 99 99 52
Width: 890
Flags: W
LayerCount: 2
Fore
SplineSet
406 355 m 256,0,1
 386 355 386 355 370.5 370 c 128,-1,2
 355 385 355 385 355 406 c 0,3,4
 355 428 355 428 370 442.5 c 128,-1,5
 385 457 385 457 406 457 c 256,6,7
 426 457 426 457 441 442 c 128,-1,8
 456 427 456 427 456 406 c 0,9,10
 456 386 456 386 441 370.5 c 128,-1,11
 426 355 426 355 406 355 c 256,0,1
785 431 m 0,12,13
 811 431 811 431 811 406 c 0,14,15
 811 322 811 322 779.5 248 c 128,-1,16
 748 174 748 174 692.5 118.5 c 128,-1,17
 637 63 637 63 563 31.5 c 128,-1,18
 489 0 489 0 406 0 c 256,19,20
 322 0 322 0 248 31.5 c 128,-1,21
 174 63 174 63 118.5 118.5 c 128,-1,22
 63 174 63 174 31.5 248 c 128,-1,23
 0 322 0 322 0 406 c 0,24,25
 0 432 0 432 26 431 c 0,26,27
 36 431 36 431 43 424 c 128,-1,28
 50 417 50 417 50 406 c 1,29,-1
 51 406 l 1,30,31
 51 332 51 332 79.5 267 c 128,-1,32
 108 202 108 202 156 154 c 128,-1,33
 204 106 204 106 268.5 78.5 c 128,-1,34
 333 51 333 51 406 51 c 0,35,36
 477 51 477 51 541 78.5 c 128,-1,37
 605 106 605 106 653.5 154.5 c 128,-1,38
 702 203 702 203 731 267.5 c 128,-1,39
 760 332 760 332 760 406 c 1,40,-1
 761 406 l 1,41,42
 761 417 761 417 768 424 c 128,-1,43
 775 431 775 431 785 431 c 0,12,13
EndSplineSet
EndChar

StartChar: i
Encoding: 105 105 53
Width: 1041
Flags: W
LayerCount: 2
Fore
SplineSet
441 177 m 9,0,-1
 441 -81 l 1,1,-1
 820 -254 l 2,2,3
 835 -261 835 -261 836 -276 c 0,4,5
 836 -302 836 -302 810 -302 c 0,6,7
 804 -302 804 -302 800 -300 c 2,8,-1
 11 58 l 1,9,-1
 12 58 l 1,10,11
 -3 65 -3 65 -3 82 c 0,12,13
 -3 92 -3 92 4 99 c 128,-1,14
 11 106 11 106 23 106 c 0,15,16
 29 106 29 106 33 104 c 2,17,-1
 391 -58 l 1,18,-1
 391 177 l 17,19,20
 391 177 391 177 190 177 c 2,21,22
 164 177 164 177 165 203 c 2,23,-1
 165 583 l 1,24,-1
 165 634 l 1,25,-1
 165 785 l 2,26,27
 165 811 165 811 190 811 c 0,28,29
 200 811 200 811 208 804 c 128,-1,30
 216 797 216 797 216 785 c 2,31,-1
 216 634 l 1,32,-1
 570 634 l 2,33,34
 653 634 653 634 727 602.5 c 128,-1,35
 801 571 801 571 856 517 c 128,-1,36
 911 463 911 463 943.5 390 c 128,-1,37
 976 317 976 317 976 236 c 2,38,-1
 976 26 l 2,39,40
 976 0 976 0 950 0 c 0,41,42
 940 0 940 0 933 7 c 128,-1,43
 926 14 926 14 926 26 c 2,44,-1
 926 177 l 1,45,-1
 441 177 l 9,0,-1
567 583 m 2,46,-1
 216 583 l 1,47,-1
 216 228 l 1,48,-1
 926 228 l 1,49,50
 926 302 926 302 897 367 c 128,-1,51
 868 432 868 432 819 479.5 c 128,-1,52
 770 527 770 527 705 555 c 128,-1,53
 640 583 640 583 567 583 c 2,46,-1
EndSplineSet
EndChar

StartChar: I
Encoding: 73 73 54
Width: 852
Flags: W
LayerCount: 2
Fore
SplineSet
276 177 m 13,0,-1
 276 -81 l 5,1,-1
 655 -254 l 6,2,3
 670 -261 670 -261 671 -276 c 4,4,5
 671 -302 671 -302 645 -302 c 4,6,7
 639 -302 639 -302 635 -300 c 6,8,-1
 -154 58 l 5,9,-1
 -153 58 l 5,10,11
 -168 65 -168 65 -168 82 c 4,12,13
 -168 92 -168 92 -161 99 c 132,-1,14
 -154 106 -154 106 -142 106 c 4,15,16
 -136 106 -136 106 -132 104 c 6,17,-1
 226 -58 l 5,18,-1
 226 177 l 21,19,20
 226 177 226 177 26 177 c 6,21,22
 0 177 0 177 0 203 c 6,23,-1
 0 583 l 5,24,-1
 0 634 l 5,25,-1
 0 785 l 6,26,27
 0 811 0 811 26 811 c 4,28,29
 36 811 36 811 43.5 804 c 132,-1,30
 51 797 51 797 51 785 c 6,31,-1
 51 634 l 5,32,-1
 406 634 l 6,33,34
 489 634 489 634 562.5 602.5 c 132,-1,35
 636 571 636 571 691 517 c 132,-1,36
 746 463 746 463 778.5 390 c 132,-1,37
 811 317 811 317 811 236 c 6,38,-1
 811 26 l 6,39,40
 811 0 811 0 785 0 c 4,41,42
 775 0 775 0 768 7 c 132,-1,43
 761 14 761 14 761 26 c 6,44,-1
 761 177 l 5,45,-1
 276 177 l 13,0,-1
402 583 m 6,46,-1
 51 583 l 5,47,-1
 51 228 l 5,48,-1
 761 228 l 5,49,50
 761 302 761 302 732 367 c 132,-1,51
 703 432 703 432 654 479.5 c 132,-1,52
 605 527 605 527 540 555 c 132,-1,53
 475 583 475 583 402 583 c 6,46,-1
EndSplineSet
EndChar

StartChar: O
Encoding: 79 79 55
Width: 850
Flags: W
LayerCount: 2
Fore
SplineSet
183 253 m 4,0,1
 203 253 203 253 218 238 c 132,-1,2
 233 223 233 223 233 203 c 4,3,4
 233 181 233 181 218.5 166.5 c 132,-1,5
 204 152 204 152 183 152 c 4,6,7
 161 152 161 152 146.5 166.5 c 132,-1,8
 132 181 132 181 132 203 c 4,9,10
 132 223 132 223 146.5 238 c 132,-1,11
 161 253 161 253 183 253 c 4,0,1
835 406 m 2,12,-1
 835 26 l 2,13,14
 835 0 835 0 809 0 c 256,15,16
 783 0 783 0 783 26 c 2,17,-1
 783 177 l 1,18,-1
 429 177 l 2,19,20
 403 177 403 177 403 203 c 256,21,22
 403 229 403 229 429 228 c 2,23,-1
 783 228 l 1,24,-1
 783 380 l 1,25,-1
 24 380 l 2,26,27
 -2 380 -2 380 -2 406 c 256,28,29
 -2 432 -2 432 24 431 c 2,30,-1
 809 431 l 2,31,32
 819 431 819 431 827 424 c 128,-1,33
 835 417 835 417 835 406 c 2,12,-1
EndSplineSet
EndChar

StartChar: o
Encoding: 111 111 56
Width: 914
Flags: W
LayerCount: 2
Fore
SplineSet
216 253 m 0,0,1
 236 253 236 253 251 238 c 128,-1,2
 266 223 266 223 266 203 c 0,3,4
 266 181 266 181 251.5 166.5 c 128,-1,5
 237 152 237 152 216 152 c 0,6,7
 194 152 194 152 179.5 166.5 c 128,-1,8
 165 181 165 181 165 203 c 0,9,10
 165 223 165 223 179.5 238 c 128,-1,11
 194 253 194 253 216 253 c 0,0,1
837 406 m 2,12,-1
 837 26 l 2,13,14
 837 0 837 0 811 0 c 256,15,16
 785 0 785 0 785 26 c 2,17,-1
 785 177 l 1,18,-1
 431 177 l 2,19,20
 405 177 405 177 406 203 c 256,21,22
 406 229 406 229 431 228 c 2,23,-1
 785 228 l 1,24,-1
 785 380 l 1,25,-1
 26 380 l 2,26,27
 0 380 0 380 0 406 c 256,28,29
 0 432 0 432 26 431 c 2,30,-1
 811 431 l 2,31,32
 821 431 821 431 829 424 c 128,-1,33
 837 417 837 417 837 406 c 2,12,-1
EndSplineSet
EndChar

StartChar: V
Encoding: 86 86 57
Width: 922
Flags: W
LayerCount: 2
Fore
SplineSet
396 411 m 2,0,1
 396 411 396 411 403.5 423.5 c 128,-1,2
 411 436 411 436 421 436 c 2,3,4
 421 436 421 436 422 436 c 1,5,-1
 784 436 l 1,6,7
 815 385 815 385 815 385 c 129,-1,8
 815 385 815 385 446 385 c 1,9,-1
 446 -35 l 5,10,-1
 825 -207 l 6,11,12
 839 -213 839 -213 840 -229 c 4,13,14
 840 -240 840 -240 832.5 -247.5 c 132,-1,15
 825 -255 825 -255 815 -255 c 4,16,17
 809 -255 809 -255 805 -253 c 6,18,-1
 16 105 l 6,19,20
 2 111 2 111 2 128 c 4,21,22
 2 154 2 154 28 154 c 4,23,24
 34 154 34 154 38 152 c 6,25,-1
 396 -11 l 5,26,-1
 396 411 l 2,0,1
1260 411 m 256,27,28
 1260 385 1260 385 1234 385 c 2,29,-1
 823 385 l 1,30,-1
 823 26 l 2,31,32
 823 0 823 0 798 0 c 0,33,34
 788 0 788 0 780 7 c 128,-1,35
 772 14 772 14 772 26 c 2,36,-1
 772 411 l 2,37,38
 772 486 772 486 743.5 551 c 128,-1,39
 715 616 715 616 666 665 c 128,-1,40
 617 714 617 714 551.5 742 c 128,-1,41
 486 770 486 770 413 770 c 0,42,43
 341 770 341 770 276 742 c 128,-1,44
 211 714 211 714 161.5 665 c 128,-1,45
 112 616 112 616 82.5 550.5 c 128,-1,46
 53 485 53 485 53 411 c 0,47,48
 53 385 53 385 28 385 c 256,49,50
 2 385 2 385 2 411 c 0,51,52
 2 496 2 496 34.5 570.5 c 128,-1,53
 67 645 67 645 123 701 c 128,-1,54
 179 757 179 757 253.5 789 c 128,-1,55
 328 821 328 821 413 821 c 0,56,57
 495 821 495 821 567.5 791.5 c 128,-1,58
 640 762 640 762 695.5 709.5 c 128,-1,59
 751 657 751 657 784.5 587 c 128,-1,60
 818 517 818 517 823 436 c 1,61,-1
 1234 436 l 2,62,63
 1260 437 1260 437 1260 411 c 256,27,28
EndSplineSet
EndChar

StartChar: v
Encoding: 118 118 58
Width: 1335
Flags: W
LayerCount: 2
Fore
SplineSet
396 411 m 2,0,1
 396 411 396 411 403.5 423.5 c 128,-1,2
 411 436 411 436 421 436 c 2,3,4
 421 436 421 436 422 436 c 1,5,-1
 784 436 l 1,6,7
 815 385 815 385 815 385 c 129,-1,8
 815 385 815 385 446 385 c 1,9,-1
 446 -35 l 5,10,-1
 825 -207 l 6,11,12
 839 -213 839 -213 840 -229 c 4,13,14
 840 -240 840 -240 832.5 -247.5 c 132,-1,15
 825 -255 825 -255 815 -255 c 4,16,17
 809 -255 809 -255 805 -253 c 6,18,-1
 16 105 l 6,19,20
 2 111 2 111 2 128 c 4,21,22
 2 154 2 154 28 154 c 4,23,24
 34 154 34 154 38 152 c 6,25,-1
 396 -11 l 5,26,-1
 396 411 l 2,0,1
1260 411 m 256,27,28
 1260 385 1260 385 1234 385 c 2,29,-1
 823 385 l 1,30,-1
 823 26 l 2,31,32
 823 0 823 0 798 0 c 0,33,34
 788 0 788 0 780 7 c 128,-1,35
 772 14 772 14 772 26 c 2,36,-1
 772 411 l 2,37,38
 772 486 772 486 743.5 551 c 128,-1,39
 715 616 715 616 666 665 c 128,-1,40
 617 714 617 714 551.5 742 c 128,-1,41
 486 770 486 770 413 770 c 0,42,43
 341 770 341 770 276 742 c 128,-1,44
 211 714 211 714 161.5 665 c 128,-1,45
 112 616 112 616 82.5 550.5 c 128,-1,46
 53 485 53 485 53 411 c 0,47,48
 53 385 53 385 28 385 c 256,49,50
 2 385 2 385 2 411 c 0,51,52
 2 496 2 496 34.5 570.5 c 128,-1,53
 67 645 67 645 123 701 c 128,-1,54
 179 757 179 757 253.5 789 c 128,-1,55
 328 821 328 821 413 821 c 0,56,57
 495 821 495 821 567.5 791.5 c 128,-1,58
 640 762 640 762 695.5 709.5 c 128,-1,59
 751 657 751 657 784.5 587 c 128,-1,60
 818 517 818 517 823 436 c 1,61,-1
 1234 436 l 2,62,63
 1260 437 1260 437 1260 411 c 256,27,28
EndSplineSet
EndChar
